<svg xmlns="http://www.w3.org/2000/svg" viewBox="0 0 58 67"><path fill="#f0f0f1" d="M58 17.2v31.5q-.5 2-2 2.8-13.3 7.4-26.3 15.2a1.1 1-44.8 0 1-1 0L0 50.3v-32q.4-1.7 2.3-2.8L28.6.5a1.2 1.2 0 0 1 1.2 0L58 17.2Zm-50.2 9q-.4 8.5.3 17.4.1 1.8 1.7 2.6l17.1 10a4.3 4.3 44.9 0 0 4.3 0l16.9-9.8a3.8 3.8 0 0 0 2-3.1q.8-9.2-.2-19.9-.2-1.8-1.7-2.7-8.3-4.6-17.4-10a3.6 3.6-44.9 0 0-3.6 0L9 21.4q-.5.3-.6.8-.5 1.8-.6 4Z"/><path fill="#f0f0f1" d="m28.4 50.8-14-8.3a1.1 1.1 0 0 1-.5-1l-.2-16a1.1 1.1 0 0 1 .6-1l14.2-8.2a1.1 1.1 0 0 1 1.1 0l14 8.2a1.1 1.1 0 0 1 .6 1v16a1.1 1.1 0 0 1-.5 1l-14.1 8.3a1.1 1.1 0 0 1-1.2 0Zm7.7-17.3a7 7 0 0 0-7.1-7.1 7 7 0 0 0-7 7 7 7 0 0 0 7 7.2 7 7 0 0 0 7-7.1Z"/></svg>